<svg width="13" height="13" viewBox="0 0 13 13" fill="none" xmlns="http://www.w3.org/2000/svg">
<path d="M12.75 5.15381C12.8125 4.84131 12.5625 4.46631 12.25 4.46631L8.6875 3.96631L7.0625 0.716308C7 0.591308 6.9375 0.528808 6.8125 0.466308C6.5 0.278808 6.125 0.403808 5.9375 0.716308L4.375 3.96631L0.8125 4.46631C0.625 4.46631 0.5 4.52881 0.4375 4.65381C0.1875 4.90381 0.1875 5.27881 0.4375 5.52881L3 8.02881L2.375 11.5913C2.375 11.7163 2.375 11.8413 2.4375 11.9663C2.625 12.2788 3 12.4038 3.3125 12.2163L6.5 10.5288L9.6875 12.2163C9.75 12.2788 9.875 12.2788 10 12.2788C10.0625 12.2788 10.0625 12.2788 10.125 12.2788C10.4375 12.2163 10.6875 11.9038 10.625 11.5288L10 7.96631L12.5625 5.46631C12.6875 5.40381 12.75 5.27881 12.75 5.15381Z" fill="white" fill-opacity="0.5"/>
</svg>
